<svg width="72" height="72" fill="none" xmlns="http://www.w3.org/2000/svg"><path d="M15.73 9.667a6.84 6.84 0 003.657.458c3.017-2.062 10.148-6.14 19.199-5.498C52.939 5.681 66.514 18.28 67.84 34.407c1.143 13.836-6.902 27.535-20.204 32.895-15.039 6.094-30.443-1.558-37.665-10.08C4.85 51.13 2.108 43.342 2.063 35.37c0-1.328-2.057-1.328-2.057 0 .137 14.982 9.462 28.589 23.54 33.857 14.171 5.315 30.718.78 40.272-10.95.183-.228.503-.595.823-1.053.365-.458 7.268-9.85 7.359-21.854.046-11.591-6.354-23.778-16.959-30.284-18.604-11.407-42.053-.503-42.053 2.291 0 .733 1.6 1.833 2.742 2.291z" fill="#4AAADA"/><path d="M1.468 29.367c.686 0 1.28.55 1.28 1.283a1.28 1.28 0 11-2.56 0c0-.733.549-1.283 1.28-1.283zM53.35 26.023c-5.897-3.253-11.839-6.552-17.736-9.805-2.788 1.65-3.52 2.108-6.308 3.803v19.93a821.53 821.53 0 006.491 3.71v-7.925c3.703 2.153 7.405 4.306 11.108 6.505 1.828-1.237 3.702-2.474 5.53-3.71l-16.684-9.713V24.19l17.553 10.171c.046-2.794.046-5.543.046-8.338z" fill="#4AAADA"/><path d="M18.61 26.023c0 8.659 0 10.766.046 19.426 5.713 3.252 11.382 6.505 17.095 9.712v-6.964c-3.565-2.016-7.085-4.031-10.65-6.001V22.312c-2.149 1.237-4.297 2.474-6.491 3.71z" fill="#4AAADA"/></svg>